<svg xmlns="http://www.w3.org/2000/svg" width="240" height="29">
    <path fill-rule="evenodd" d="M229.628 1.161c-2.664 0-4.899 1.876-4.899 4.642 0 2.86 1.95 4.22 5.947 6.235l4.567 2.298c3.615 1.829 4.757 4.407 4.757 6.704 0 4.689-3.854 7.972-8.752 7.972-1.763 0-3.189-.469-4.378-.939-3.514-1.494-4.428.415-4.586.85-.02.053-.03.089-.03.089h-.426v-9.377h.332c.046.234.094.563.143.984 1.045 5.815 5.326 7.454 8.945 7.454 3.377 0 6.276-2.156 6.276-5.625 0-2.579-2.473-4.501-5.705-6.095-2.618-1.36-9.613-3.705-9.613-9.612 0-3.47 2.999-6.517 7.564-6.517.574 0 1.564.104 2.427.293 1.014.221 1.989.66 3.023.786 1.563.19 1.906-1.296 1.936-1.304l.035-.011h.428v9.377h-.428c-.426-3.843-2.045-8.204-7.563-8.204zm-27.69.702h-3.186v20.352c0 4.875.713 5.533 4.521 5.533h.047v.441h-12.274v-.441h.044c3.808 0 4.522-.658 4.522-5.533V1.863h-3.188c-3.756.002-7.401 2.655-9.356 7.135l-.477-.157 3.106-7.769h22.969l3.111 7.782-.478.159c-1.956-4.482-5.605-7.149-9.361-7.15zm-42.886 27.149c-8.66 0-15.321-6.658-15.321-14.395 0-7.735 6.661-14.393 15.321-14.393 8.752 0 15.363 6.658 15.363 14.393 0 7.737-6.611 14.395-15.363 14.395zm0-27.898c-8.326 0-11.847 7.408-11.847 13.503 0 6.096 3.521 13.456 11.847 13.456 8.371 0 11.891-7.36 11.891-13.456 0-6.095-3.471-13.503-11.891-13.503zm-26.274 19.693c0 3.89-3.282 7.407-9.941 7.407h-13.804v-.468c3.809 0 4.52-.844 4.52-5.721V7.163c0-4.876-.711-5.673-4.52-5.673v-.469h12.471c6.091 0 8.896 3.141 8.896 6.564 0 3.329-3.093 5.578-5.898 5.954 3.329.281 8.276 2.484 8.276 7.268zm-5.947-13.222c0-3.282-1.902-5.767-5.565-5.767h-4.524v11.486h4.524c3.663 0 5.565-2.437 5.565-5.719zm-4.043 6.516h-6.046v7.924c0 4.782.998 5.392 4.809 5.392h1.237c4.235 0 6.424-2.86 6.424-6.61 0-3.798-2.189-6.706-6.424-6.706zM75.586 28.214v-.468c3.807 0 4.519-.658 4.519-5.532V6.975c0-4.876-.712-5.485-4.519-5.485v-.469h12.225v.469c-3.804 0-4.518.609-4.518 5.485V21.51c0 5.016.762 5.907 4.805 5.907h5.439c4.873 0 6.651-4.5 6.651-4.5l.473.08-1.548 5.217H75.586zm-21.784-.468c3.236 0 5.09-.61 3.662-3.845l-2.377-5.345H43.192l-2.33 5.345c-1.332 3.001.571 3.845 3.663 3.845v.468H34.011v-.468c2.761 0 4.376-.939 5.662-3.892L50.044.224h.285l10.419 23.63c1.426 3.282 2.854 3.892 5.613 3.892v.468H53.802v-.468zm-4.71-22.693l-5.566 12.705h11.228L49.092 5.053zM19.343 1.911h-3.185v20.352c0 4.875.714 5.532 4.521 5.532h.048v.442H8.452v-.442h.046c3.807 0 4.52-.657 4.52-5.532V1.911H9.833C6.076 1.912 2.432 4.565.476 9.047l-.477-.158L3.103 1.12h22.971l3.111 7.782-.479.158c-1.956-4.482-5.605-7.148-9.363-7.149z"/>
</svg>
